<svg width="74" height="44" viewBox="0 0 74 44" fill="none" xmlns="http://www.w3.org/2000/svg">
<path id="Union" fill-rule="evenodd" clip-rule="evenodd" d="M50.8297 0L45.1914 7.84813C43.5765 10.0959 40.9672 11.4303 38.1864 11.4303H25.0855C22.3047 11.4303 19.6953 12.7646 18.0804 15.0125L12.907 22.2136H37.6158L32.2845 29.6345C30.6696 31.8824 28.0602 33.2167 25.2794 33.2167H12.1785C9.3977 33.2167 6.78832 34.5511 5.17345 36.7989L0 44H24.995L30.1684 36.7989C31.7833 34.5511 34.3927 33.2167 37.1735 33.2167H48.4497C51.2305 33.2167 53.8399 31.8823 55.4548 29.6345L61.093 21.7864H38.2089L43.0754 15.0125C44.6903 12.7646 47.2997 11.4303 50.0805 11.4303H61.3567C64.1375 11.4303 66.7469 10.0959 68.3617 7.84813L74 0H50.8297Z" fill="#625DFA"/>
</svg>
